<?xml version="1.0" encoding="UTF-8"?><svg xmlns="http://www.w3.org/2000/svg" viewBox="0 0 500.5 500.5"><g id="grid"><g style="opacity:.3;"><circle cx="250.25" cy="250.25" r="250" style="fill:none; stroke:#231f20; stroke-miterlimit:10; stroke-width:.5px;"/><line x1=".25" y1=".25" x2="500.25" y2="500.25" style="fill:none; stroke:#231f20; stroke-miterlimit:10; stroke-width:.5px;"/><line x1="500.25" y1=".25" x2=".25" y2="500.25" style="fill:none; stroke:#231f20; stroke-miterlimit:10; stroke-width:.5px;"/><rect x="73.47" y="73.47" width="353.55" height="353.55" style="fill:none; stroke:#231f20; stroke-miterlimit:10; stroke-width:.5px;"/><rect x=".25" y="125.25" width="500" height="250" style="fill:none; stroke:#231f20; stroke-miterlimit:10; stroke-width:.5px;"/><line x1=".25" y1="250.25" x2="500.25" y2="250.25" style="fill:none; stroke:#231f20; stroke-miterlimit:10; stroke-width:.5px;"/><rect x="125.25" y=".25" width="250" height="500" style="fill:none; stroke:#231f20; stroke-miterlimit:10; stroke-width:.5px;"/><line x1="250.25" y1="500.25" x2="250.25" y2=".25" style="fill:none; stroke:#231f20; stroke-miterlimit:10; stroke-width:.5px;"/><rect x="125.25" y="125.25" width="250" height="250" rx="125" ry="125" style="fill:none; stroke:#231f20; stroke-miterlimit:10; stroke-width:.5px;"/><rect x="187.75" y="187.75" width="125" height="125" rx="62.5" ry="62.5" style="fill:none; stroke:#231f20; stroke-miterlimit:10; stroke-width:.5px;"/></g></g><g id="Layer_2"><polygon points="436.09 64.41 436.09 373.7 369.3 373.7 369.3 177.15 110.39 436.09 64.41 390.11 323.34 131.2 126.8 131.2 126.8 64.41 436.09 64.41" style="fill:#231f20;"/></g></svg>