<svg width="2720" height="738" viewBox="0 0 2720 738" fill="none" xmlns="http://www.w3.org/2000/svg">
<rect x="1" y="1" width="2718" height="735.5" rx="119" stroke="black" stroke-opacity="0.5" stroke-width="2"/>
<path d="M401.823 150C463.458 150 516.34 187.767 538.932 241.592C559.253 225.888 584.678 216.557 612.264 216.557C678.885 216.557 732.893 270.989 732.893 338.134C732.893 338.786 732.885 339.436 732.875 340.086C798.144 343.552 850 397.572 850 463.704C850 532.074 794.575 587.5 726.204 587.5H273.796C205.425 587.5 150 532.074 150 463.704C150 400.475 197.403 348.32 258.608 340.833C254.967 327.844 253.019 314.138 253.019 299.975C253.019 217.146 319.641 150 401.823 150ZM384.696 291.93C368.117 284.066 349 296.158 349 314.507C349 324.32 354.744 333.225 363.684 337.271L486.761 392.985C487.971 393.533 488.748 394.738 488.748 396.066C488.748 397.394 487.971 398.6 486.761 399.147L363.684 454.861C354.744 458.908 349 467.812 349 477.625C349 495.974 368.117 508.066 384.696 500.202L514.672 438.554C525.142 433.588 531.815 423.036 531.815 411.448V380.684C531.815 369.096 525.142 358.544 514.672 353.578L384.696 291.93ZM563.877 446.146C552.078 446.146 542.513 455.711 542.513 467.511C542.513 479.31 552.078 488.875 563.877 488.875H676.636C688.435 488.875 698 479.31 698 467.511C698 455.711 688.435 446.146 676.636 446.146H563.877Z" fill="#000B1A"/>
<path d="M2570 574.954H2493.35C2457.08 574.954 2428.64 566.094 2408.04 548.373C2387.43 530.652 2377.13 502.216 2377.13 463.065V205.287H2469.86V452.556C2469.86 468.217 2473.15 478.726 2479.75 484.083C2486.75 489.028 2498.29 491.501 2514.36 491.501H2570V574.954ZM2570 341.903H2328.29V265.25H2570V341.903Z" fill="#000B1A"/>
<path d="M2073.18 581.136C2044.33 581.136 2020.22 575.779 2000.85 565.064C1981.89 553.937 1967.68 539.101 1958.2 520.555C1949.13 502.01 1944.6 481.198 1944.6 458.12V265.25H2037.32V427.211C2037.32 451.938 2043.3 470.071 2055.25 481.61C2067.2 492.738 2087.81 498.301 2117.07 498.301C2147.56 498.301 2168.79 492.325 2180.74 480.374C2193.1 468.011 2199.28 448.641 2199.28 422.266L2211.03 421.648L2217.83 480.374H2200.52C2198.05 497.683 2191.87 513.962 2181.98 529.21C2172.5 544.458 2158.69 557.028 2140.56 566.918C2122.84 576.397 2100.38 581.136 2073.18 581.136ZM2292.01 574.955H2205.47V479.138L2199.28 476.047V265.25H2292.01V574.955Z" fill="#000B1A"/>
<path d="M1884.32 574.955H1791.59V160.779H1884.32V574.955Z" fill="#000B1A"/>
<path d="M1512.98 581.136C1484.13 581.136 1460.03 575.779 1440.66 565.064C1421.7 553.937 1407.48 539.101 1398 520.555C1388.94 502.01 1384.4 481.198 1384.4 458.12V265.25H1477.13V427.211C1477.13 451.938 1483.1 470.071 1495.06 481.61C1507.01 492.738 1527.61 498.301 1556.87 498.301C1587.37 498.301 1608.59 492.325 1620.54 480.374C1632.91 468.011 1639.09 448.641 1639.09 422.266L1650.83 421.648L1657.63 480.374H1640.33C1637.85 497.683 1631.67 513.962 1621.78 529.21C1612.3 544.458 1598.5 557.028 1580.36 566.918C1562.64 576.397 1540.18 581.136 1512.98 581.136ZM1731.82 574.955H1645.27V479.138L1639.09 476.047V265.25H1731.82V574.955Z" fill="#000B1A"/>
<path d="M1185.12 581.137C1149.27 581.137 1121.04 573.513 1100.43 558.264C1080.24 542.604 1067.26 519.526 1061.49 489.029H1044.18L1050.98 422.266H1062.73C1062.73 439.987 1066.02 454.411 1072.62 465.538C1079.62 476.253 1089.72 484.084 1102.91 489.029C1116.51 493.974 1133.2 496.447 1152.98 496.447C1173.17 496.447 1189.66 493.974 1202.43 489.029C1215.21 484.084 1224.69 476.047 1230.87 464.92C1237.05 453.793 1240.14 438.957 1240.14 420.412C1240.14 401.042 1237.05 386 1230.87 375.285C1224.69 364.158 1215.21 356.122 1202.43 351.177C1189.66 346.231 1173.38 343.758 1153.6 343.758C1123.51 343.758 1100.85 349.322 1085.6 360.449C1070.35 371.576 1062.73 390.533 1062.73 417.321H1050.98V347.467H1067.67C1073.03 321.504 1085.39 300.28 1104.76 283.796C1124.54 267.311 1152.77 259.069 1189.45 259.069C1220.36 259.069 1246.53 265.663 1267.96 278.85C1289.39 292.038 1305.67 310.789 1316.79 335.104C1328.33 359.007 1334.1 387.443 1334.1 420.412C1334.1 452.969 1328.33 481.405 1316.79 505.72C1305.67 529.622 1288.98 548.168 1266.72 561.355C1244.47 574.543 1217.27 581.137 1185.12 581.137ZM1055.93 574.955H970V160.779H1062.73V475.429L1055.93 483.465V574.955Z" fill="#000B1A"/>
</svg>
