<svg width="3590" height="925" viewBox="0 0 3590 925" fill="none" xmlns="http://www.w3.org/2000/svg">
<rect x="1" y="1" width="3587.43" height="922.056" rx="119" stroke="black" stroke-opacity="0.5" stroke-width="2"/>
<path d="M429.82 429.821C447.394 412.247 475.886 412.247 493.46 429.821C511.033 447.394 511.033 475.887 493.46 493.46C475.886 511.034 447.394 511.033 429.82 493.46C412.246 475.887 412.246 447.394 429.82 429.821Z" fill="black"/>
<path fill-rule="evenodd" clip-rule="evenodd" d="M500.919 196.863C563.402 134.379 664.709 134.38 727.193 196.864C789.676 259.347 789.677 360.653 727.193 423.137L688.302 462.028L727.193 500.918C789.677 563.402 789.677 664.709 727.193 727.193C665.197 789.188 564.983 789.673 502.39 728.647L500.919 727.193L494.014 720.289L537.855 676.449L544.759 683.352C583.031 721.623 645.081 721.623 683.352 683.352C721.623 645.08 721.623 583.03 683.352 544.759L644.462 505.868L423.137 727.194C360.654 789.677 259.347 789.677 196.863 727.194C134.867 665.198 134.383 564.984 195.41 502.391L196.862 500.918L235.753 462.027L196.863 423.137C134.379 360.653 134.379 259.347 196.863 196.863C259.347 134.379 360.653 134.379 423.136 196.863L430.037 203.763L386.197 247.604L379.297 240.703C341.025 202.432 278.974 202.432 240.703 240.703C202.432 278.975 202.432 341.025 240.703 379.296L279.593 418.187L500.919 196.863ZM240.704 544.76C202.432 583.031 202.432 645.081 240.704 683.353C278.975 721.624 341.025 721.624 379.297 683.353L418.187 644.461L279.594 505.868L240.704 544.76ZM323.435 462.028L462.028 600.62L600.621 462.028L462.028 323.435L323.435 462.028ZM683.352 240.703C645.081 202.432 583.031 202.432 544.759 240.703L505.869 279.594L644.462 418.187L683.352 379.297C721.623 341.026 721.623 278.975 683.352 240.703Z" fill="black"/>
<path d="M3356.48 711.232L3244.21 536.754L3179.14 606.831V517.447L3332.88 358.7H3422.27L3294.98 489.559L3439.43 711.232H3356.48ZM3116.22 711.232V212.824H3187.01V711.232H3116.22Z" fill="black"/>
<path d="M2963.6 711.232V358.7H3033.68V711.232H2963.6ZM2958.6 297.918V212.824H3037.97V297.918H2958.6Z" fill="black"/>
<path d="M2757.26 717.668C2730.57 717.668 2706.73 712.901 2685.76 703.367C2665.26 693.355 2647.86 679.769 2633.56 662.607C2619.73 645.445 2609.24 625.9 2602.09 603.971C2594.94 582.042 2591.37 558.921 2591.37 534.609C2591.37 510.773 2594.94 487.89 2602.09 465.961C2609.24 444.032 2619.73 424.487 2633.56 407.325C2647.86 390.163 2665.26 376.815 2685.76 367.281C2706.73 357.27 2730.57 352.264 2757.26 352.264C2791.59 352.264 2821.38 360.607 2846.65 377.292C2872.39 393.977 2891.22 419.243 2903.14 453.09L2841.64 476.687C2835.45 458.095 2825.43 442.84 2811.61 430.923C2797.79 419.005 2779.67 413.046 2757.26 413.046C2735.34 413.046 2717.22 419.005 2702.92 430.923C2688.62 442.364 2678.13 457.38 2671.46 475.972C2664.78 494.088 2661.44 513.633 2661.44 534.609C2661.44 555.584 2664.78 575.368 2671.46 593.96C2678.13 612.552 2688.62 627.568 2702.92 639.01C2717.22 650.451 2735.34 656.172 2757.26 656.172C2779.67 656.172 2797.79 650.451 2811.61 639.01C2825.43 627.092 2835.45 611.598 2841.64 592.53L2903.14 616.127C2891.22 650.451 2872.39 675.955 2846.65 692.64C2821.38 709.326 2791.59 717.668 2757.26 717.668Z" fill="black"/>
<path d="M2026.45 711.232V358.7H2097.24V449.515L2082.23 454.52C2086.52 435.928 2092.48 420.196 2100.1 407.325C2107.73 394.454 2116.55 383.966 2126.56 375.862C2137.05 367.757 2148.25 361.799 2160.17 357.985C2172.09 354.171 2184.24 352.264 2196.64 352.264C2217.14 352.264 2235.49 356.316 2251.7 364.42C2268.39 372.048 2282.21 384.204 2293.17 400.889C2304.62 417.098 2312.24 438.55 2316.06 465.246L2276.01 473.112C2283.16 445.462 2292.46 422.818 2303.9 405.18C2315.82 387.541 2330.12 374.432 2346.81 365.851C2363.97 356.793 2383.51 352.264 2405.44 352.264C2435 352.264 2458.6 358.938 2476.23 372.286C2494.35 385.634 2507.46 403.035 2515.56 424.487C2524.14 445.462 2528.43 468.583 2528.43 493.849V711.232H2459.07V511.011C2459.07 490.512 2456.69 473.112 2451.92 458.811C2447.15 444.032 2439.77 432.829 2429.75 425.202C2419.74 417.098 2406.39 413.046 2389.71 413.046C2373.5 413.046 2359.68 417.336 2348.24 425.917C2336.79 434.021 2327.97 446.416 2321.78 463.101C2316.06 479.786 2313.2 500.523 2313.2 525.313V711.232H2243.12V506.721C2243.12 475.257 2237.16 451.898 2225.24 436.643C2213.8 420.912 2197.12 413.046 2175.19 413.046C2158.98 413.046 2144.92 417.336 2133 425.917C2121.56 434.021 2112.74 446.416 2106.54 463.101C2100.34 479.786 2097.24 500.523 2097.24 525.313V711.232H2026.45Z" fill="black"/>
<path d="M1873.84 711.232V358.7H1943.92V711.232H1873.84ZM1868.83 297.918V212.824H1948.21V297.918H1868.83Z" fill="black"/>
<path d="M1670.97 717.668C1646.18 717.668 1624.25 714.093 1605.18 706.942C1586.11 699.314 1569.67 689.78 1555.84 678.339C1542.49 666.421 1531.77 654.265 1523.66 641.87L1571.57 600.396C1580.63 616.604 1593.5 630.667 1610.19 642.585C1627.35 654.026 1647.85 659.747 1671.68 659.747C1692.66 659.747 1709.11 655.456 1721.02 646.876C1733.42 637.818 1739.62 626.138 1739.62 611.837C1739.62 600.396 1735.8 591.338 1728.17 584.664C1720.55 577.513 1710.54 571.793 1698.14 567.502C1685.75 562.735 1672.16 558.683 1657.38 555.346C1644.03 551.532 1630.45 547.242 1616.62 542.474C1602.8 537.707 1590.17 531.748 1578.72 524.598C1567.76 516.97 1558.7 507.436 1551.55 495.994C1544.88 484.077 1541.54 469.537 1541.54 452.375C1541.54 422.342 1552.98 398.267 1575.86 380.152C1599.22 361.56 1629.97 352.264 1668.11 352.264C1695.28 352.264 1720.07 357.985 1742.48 369.426C1764.88 380.391 1782.28 396.837 1794.68 418.766L1751.06 452.375C1741.52 436.643 1729.13 425.202 1713.87 418.051C1699.1 410.9 1682.89 407.325 1665.25 407.325C1648.56 407.325 1634.5 410.9 1623.06 418.051C1612.09 424.725 1606.61 434.021 1606.61 445.939C1606.61 454.52 1609 461.671 1613.76 467.391C1619.01 472.635 1626.87 477.402 1637.36 481.693C1648.32 485.507 1661.67 489.32 1677.4 493.134C1692.18 496.471 1707.2 500.523 1722.45 505.29C1737.71 510.058 1751.77 516.255 1764.64 523.882C1777.52 531.51 1788 541.759 1796.11 554.631C1804.21 567.502 1808.26 584.187 1808.26 604.686C1808.26 627.092 1802.54 646.876 1791.1 664.037C1779.66 680.722 1763.69 693.832 1743.19 703.367C1722.69 712.901 1698.62 717.668 1670.97 717.668Z" fill="black"/>
<path d="M1399.65 711.232V358.7H1469.73V711.232H1399.65ZM1394.65 297.918V212.824H1474.02V297.918H1394.65Z" fill="black"/>
<path d="M1127.17 720.528C1080.93 720.528 1040.17 709.802 1004.89 688.35C970.092 666.898 942.919 636.626 923.374 597.535C903.828 558.444 894.056 513.156 894.056 461.671C894.056 410.185 903.828 365.136 923.374 326.521C942.919 287.431 970.092 257.159 1004.89 235.707C1040.17 214.254 1080.93 203.528 1127.17 203.528C1178.18 203.528 1222.28 216.161 1259.46 241.427C1297.12 266.693 1324.05 301.732 1340.26 346.544L1272.33 371.571C1260.41 340.585 1242.06 316.51 1217.27 299.349C1192.48 281.71 1162.45 272.891 1127.17 272.891C1094.75 272.891 1066.39 280.757 1042.08 296.488C1018.24 311.743 999.649 333.434 986.3 361.56C973.429 389.21 966.993 422.58 966.993 461.671C966.993 500.762 973.429 534.37 986.3 562.497C999.649 590.623 1018.24 612.552 1042.08 628.284C1066.39 643.538 1094.75 651.166 1127.17 651.166C1162.45 651.166 1192.48 642.585 1217.27 625.423C1242.06 607.785 1260.41 583.472 1272.33 552.485L1340.26 576.798C1324.05 621.133 1297.12 656.171 1259.46 681.914C1222.28 707.657 1178.18 720.528 1127.17 720.528Z" fill="black"/>
</svg>
