<svg width="625" height="625" viewBox="0 0 625 625" fill="none" xmlns="http://www.w3.org/2000/svg">
<path d="M279.82 279.82C297.393 262.246 325.886 262.246 343.459 279.82C361.033 297.394 361.033 325.886 343.459 343.46C325.886 361.033 297.393 361.033 279.82 343.46C262.246 325.886 262.246 297.394 279.82 279.82Z" fill="black"/>
<path fill-rule="evenodd" clip-rule="evenodd" d="M350.919 46.8629C413.403 -15.621 514.71 -15.621 577.194 46.8629C639.677 109.347 639.677 210.654 577.194 273.137L538.302 312.028L577.193 350.919C639.677 413.402 639.677 514.709 577.193 577.193C515.197 639.188 414.983 639.673 352.39 578.646L350.919 577.193L344.015 570.289L387.856 526.448L394.759 533.352C433.03 571.623 495.08 571.623 533.352 533.352C571.623 495.081 571.623 433.031 533.352 394.759L494.461 355.869L273.137 577.193C210.653 639.676 109.347 639.676 46.8636 577.193C-15.132 515.197 -15.6172 414.983 45.4095 352.39L46.8636 350.919L85.7542 312.028L46.8626 273.136C-15.6209 210.653 -15.6208 109.347 46.8626 46.8629C109.346 -15.621 210.653 -15.621 273.137 46.8629L280.037 53.7633L236.197 97.6031L229.296 90.7028C191.025 52.4317 128.975 52.4316 90.7034 90.7028C52.4321 128.974 52.4323 191.024 90.7034 229.296L129.594 268.187L350.919 46.8629ZM90.7034 394.759C52.4324 433.031 52.4324 495.081 90.7034 533.352C128.975 571.623 191.026 571.623 229.297 533.352L268.188 494.462L129.594 355.868L90.7034 394.759ZM173.435 312.027L312.028 450.621L450.62 312.028L312.028 173.435L173.435 312.027ZM533.353 90.7037C495.081 52.4324 433.031 52.4324 394.76 90.7037L355.868 129.594L494.461 268.187L533.353 229.297C571.624 191.025 571.624 128.975 533.353 90.7037Z" fill="black"/>
</svg>
