<svg width="555" height="153" viewBox="0 0 555 153" fill="none" xmlns="http://www.w3.org/2000/svg">
<path d="M36.9231 120V46.1538L120 46.1538V120H36.9231Z" fill="#AB0000"/>
<path d="M36.9231 46.1538C57.3151 46.1538 73.8462 62.6849 73.8462 83.0769C73.8462 103.469 57.3151 120 36.9231 120C16.531 120 0 103.469 0 83.0769C0 62.6849 16.531 46.1538 36.9231 46.1538Z" fill="#AB0000"/>
<path d="M46.1538 36.9231L120 36.9231L120 120H46.1538L46.1538 36.9231Z" fill="#AB0000"/>
<path d="M120 36.9231C120 57.3151 103.469 73.8462 83.0769 73.8462C62.6849 73.8462 46.1538 57.3151 46.1538 36.9231C46.1538 16.531 62.6849 0 83.0769 0C103.469 0 120 16.531 120 36.9231Z" fill="#AB0000"/>
<path d="M537.48 112.4C534.718 112.4 532.48 110.161 532.48 107.4V82.5001C532.48 81.2298 531.45 80.2001 530.18 80.2001C528.909 80.2001 527.88 79.1703 527.88 77.9001V44.4001C527.88 38.1334 526.346 33.4667 523.28 30.4001C520.213 27.3334 515.48 25.8001 509.08 25.8001C505.746 25.8001 501.746 25.8667 497.08 26.0001C492.413 26.1334 487.68 26.3334 482.88 26.6001C480.327 26.673 477.913 26.7659 475.64 26.8788C472.741 27.0226 470.28 24.7319 470.28 21.8302V8.18416C470.28 5.59062 472.263 3.42603 474.848 3.22565C476.679 3.08379 478.623 2.94193 480.68 2.80006C484.546 2.5334 488.48 2.40007 492.48 2.40007C496.613 2.26674 500.48 2.20007 504.08 2.20007C515.28 2.20007 524.546 3.66673 531.88 6.60006C539.346 9.53339 544.946 14.1334 548.68 20.4001C552.546 26.6667 554.48 34.8667 554.48 45.0001V107.4C554.48 110.161 552.241 112.4 549.48 112.4H537.48ZM497.48 115.2C489.613 115.2 482.68 113.8 476.68 111C470.813 108.2 466.213 104.2 462.88 99.0001C459.68 93.8001 458.08 87.5334 458.08 80.2001C458.08 72.2001 460.013 65.6667 463.88 60.6001C467.88 55.5334 473.413 51.7334 480.48 49.2001C487.68 46.6667 496.08 45.4001 505.68 45.4001H525.88C528.641 45.4001 530.88 47.6386 530.88 50.4001V57.0001C530.88 59.7615 528.641 62.0001 525.88 62.0001H505.28C498.88 62.0001 493.946 63.6001 490.48 66.8001C487.146 69.8667 485.48 73.8667 485.48 78.8001C485.48 83.7334 487.146 87.7334 490.48 90.8001C493.946 93.8667 498.88 95.4001 505.28 95.4001C509.146 95.4001 512.68 94.7334 515.88 93.4001C519.213 91.9334 521.946 89.5334 524.08 86.2001C525.08 84.67 525.886 82.9062 526.497 80.9086C527.431 77.8521 531.589 76.4545 533.689 78.8637C534.322 79.5898 534.637 80.5432 534.531 81.5006C533.759 88.4461 531.942 94.3459 529.08 99.2001C526.146 104.4 522.013 108.4 516.68 111.2C511.48 113.867 505.08 115.2 497.48 115.2Z" fill="#AB0000"/>
<path d="M398.867 112.4C396.106 112.4 393.867 110.161 393.867 107.4V8.80001C393.867 6.03859 396.106 3.80002 398.867 3.80002H410.867C413.629 3.80002 415.867 6.03859 415.867 8.80002V49.5C415.867 49.6657 415.733 49.8 415.567 49.8C415.402 49.8 415.267 49.6639 415.268 49.4982C415.31 34.0477 418.644 22.3484 425.267 14.4C431.934 6.40002 441.734 2.40002 454.667 2.40002C456.876 2.40002 458.667 4.19089 458.667 6.40002V21.6C458.667 24.3614 456.429 26.6 453.667 26.6H451.067C441.734 26.6 434.467 29.1334 429.267 34.2C424.201 39.1334 421.667 46.3334 421.667 55.8V107.4C421.667 110.161 419.429 112.4 416.667 112.4H398.867Z" fill="#AB0000"/>
<path d="M328.444 116.2C319.11 116.2 310.91 114.6 303.844 111.4C296.91 108.2 291.11 103.933 286.444 98.6C281.91 93.1333 278.444 87.0667 276.044 80.4C273.777 73.7333 272.644 66.9333 272.644 60V56.2C272.644 49 273.777 42.0667 276.044 35.4C278.444 28.6 281.91 22.6 286.444 17.4C291.11 12.0667 296.844 7.86667 303.644 4.8C310.444 1.6 318.31 0 327.244 0C338.977 0 348.777 2.60001 356.644 7.80001C364.644 12.8667 370.644 19.6 374.644 28C378.644 36.2667 380.644 45.2 380.644 54.8V59.8C380.644 62.5614 378.405 64.8 375.644 64.8H289.444C286.682 64.8 284.444 62.5614 284.444 59.8V52.8C284.444 50.0386 286.682 47.8 289.444 47.8H357.133C359.365 47.8 360.469 50.5105 358.872 52.0699C357.296 53.6096 354.585 52.4905 354.38 50.2965C353.963 45.8361 353.051 41.8706 351.644 38.4C349.644 33.4667 346.577 29.6667 342.444 27C338.444 24.3333 333.377 23 327.244 23C321.11 23 315.91 24.4 311.644 27.2C307.377 30 304.11 34.0667 301.844 39.4C299.71 44.6 298.644 50.8667 298.644 58.2C298.644 65 299.71 71.0667 301.844 76.4C303.977 81.6 307.244 85.7333 311.644 88.8C316.044 91.7333 321.644 93.2 328.444 93.2C335.244 93.2 340.777 91.8667 345.044 89.2C348.043 87.2318 350.285 84.967 351.769 82.4058C352.875 80.4952 354.756 79 356.964 79H372.659C375.842 79 378.23 81.9476 377.189 84.9556C375.444 89.9938 372.929 94.542 369.644 98.6C365.11 104.2 359.31 108.533 352.244 111.6C345.31 114.667 337.377 116.2 328.444 116.2Z" fill="#AB0000"/>
<path d="M155 152.4C152.239 152.4 150 150.161 150 147.4V8.80002C150 6.03859 152.239 3.80002 155 3.80002H167C169.761 3.80002 172 6.03859 172 8.80002V48.838C172 49.7939 171.195 50.5527 170.241 50.4966C169.332 50.4431 168.634 49.6664 168.693 48.7576C169.364 38.4135 171.6 29.6943 175.4 22.6C179.533 15.1334 185 9.60002 191.8 6.00002C198.6 2.26669 206.2 0.400024 214.6 0.400024C222.333 0.400024 229.267 1.80003 235.4 4.60002C241.667 7.40003 247 11.3334 251.4 16.4C255.933 21.4667 259.4 27.4 261.8 34.2C264.2 40.8667 265.4 48.0667 265.4 55.8V60C265.4 67.8667 264.2 75.2 261.8 82C259.533 88.6667 256.133 94.6 251.6 99.8C247.2 104.867 241.867 108.867 235.6 111.8C229.333 114.6 222.333 116 214.6 116C206.467 116 199 114.333 192.2 111C185.533 107.533 180.133 102.267 176 95.2C173.818 91.3988 172.137 87.0215 170.959 82.0681C170.004 78.055 174.87 76.3387 177.135 79.7868C177.569 80.4478 177.8 81.2214 177.8 82.0122V147.4C177.8 150.161 175.561 152.4 172.8 152.4H155ZM207.6 92.6C213.6 92.6 218.8 91.1334 223.2 88.2C227.733 85.2667 231.267 81.2 233.8 76C236.333 70.6667 237.6 64.6667 237.6 58C237.6 51.0667 236.333 45.0667 233.8 40C231.267 34.9334 227.733 31 223.2 28.2C218.8 25.2667 213.6 23.8 207.6 23.8C202.133 23.8 197.067 25 192.4 27.4C187.867 29.8 184.133 33.3334 181.2 38C178.4 42.6667 177 48.2667 177 54.8V62.8C177 69.0667 178.467 74.4 181.4 78.8C184.333 83.2 188.133 86.6 192.8 89C197.467 91.4 202.4 92.6 207.6 92.6Z" fill="#AB0000"/>
</svg>
