<?xml version="1.0" encoding="UTF-8"?><svg id="Layer_1" xmlns="http://www.w3.org/2000/svg" viewBox="0 0 740 800.07"><path d="M644.09,69.63C583.29-.96,494.29,9.85,407.04,7.21c-61.9-1.57-127.47-15.2-188.29-.35C-34.25,74.38-87.38,653.08,163.49,771.33c64.54,30.31,141.05,26.24,211.32,28.48,146.86,3.25,290.23-21.37,340.11-172.07,33.75-100.28,27.95-210.11,14.36-314.31-12.55-80.96-30.07-179.76-85.06-243.65l-.14-.15ZM611.38,548.54c-12.03,49.49-46.36,110.28-104.07,117.99-11.74,1.26-23.76-.65-34.51-5.46-58.64-28.04-55.01-108.86-29.18-158.85,20.78-42.98,75.05-92.04,126.58-82.48,52.46,13.34,51.48,87.72,41.22,128.6l-.05.2ZM570.59,231.61c-2.27,68.62-69.33,112.43-116.28,156.79-37.5,33.9-69.23,73.95-95.87,116.41-38.04,58.46-90.26,155.8-176.98,128.57-109.27-43.39-113.26-313.78-31.09-415.01,52.07-61.23,104.84-50.84,177.47-39.54,25.63,3.75,51.98,5.5,77.94,3.17,28.18-2.15,55.71-9.07,83.88-10.98,44.13-3.42,80.45,14.42,80.92,60.4v.2Z" style="fill:#be1e2d;"/></svg>